<svg xmlns="http://www.w3.org/2000/svg" viewBox="0 0 180 180">
  <rect width="180" height="180" rx="25.6" ry="25.6" fill="#0800b9" />
  <path fill="#ffffff"
        d="M35.63 135.45v-31.98h35.84V90.88H35.63V76.34c0-11.49 9.35-20.84 20.84-20.84 8.08 0 13.09 3.73 18.11 9.32l.44.49 7.45-9.99-.49-.59C75.73 47.37 66.5 44.44 66.4 44.41c-3.21-1-6.55-1.5-9.94-1.5-18.42 0-33.42 14.99-33.43 33.41v59.15h12.59ZM123.39 137.11c18.51 0 33.57-15.06 33.57-33.57 0-18.51-15.06-33.57-33.57-33.57-3.68 0-7.21.62-10.52 1.72-3.83 1.4-7.66 3.93-10.44 8.57V44.55h-12.6v58.98c0 18.51 15.06 33.57 33.57 33.57Zm0-54.54c11.56 0 20.97 9.41 20.97 20.97 0 11.56-9.41 20.97-20.97 20.97s-20.97-9.41-20.97-20.97c0-11.56 9.41-20.97 20.97-20.97Z" />
</svg>
